<svg width="35" height="35" viewBox="0 0 35 35" fill="none" xmlns="http://www.w3.org/2000/svg">
<g clip-path="url(#clip0_10903_151211)">
<path d="M30.1389 0H4.86111C2.17639 0 0 2.17639 0 4.86111V30.1389C0 32.8236 2.17639 35 4.86111 35H30.1389C32.8236 35 35 32.8236 35 30.1389V4.86111C35 2.17639 32.8236 0 30.1389 0Z" fill="#FF7900"/>
<path fill-rule="evenodd" clip-rule="evenodd" d="M25.0138 15.0987V13.957H26.4122V15.0987H25.0138ZM26.4122 15.8794V20.9245H25.0138V15.8794H26.4122ZM30.1147 15.8794V16.8064H29.0906V19.3044C29.0906 19.5387 29.1299 19.6948 29.2086 19.7729C29.2874 19.851 29.4449 19.89 29.6814 19.8899C29.7602 19.8899 29.8356 19.8869 29.9079 19.8802C29.9773 19.8742 30.0463 19.8644 30.1147 19.851V20.9245C29.9843 20.9451 29.8529 20.9581 29.721 20.9634C29.5765 20.9698 29.4353 20.9731 29.2975 20.9731C29.0915 20.9737 28.8858 20.959 28.682 20.9291C28.5022 20.9045 28.3286 20.8466 28.17 20.7583C28.0217 20.6733 27.9005 20.5481 27.8204 20.3971C27.735 20.2412 27.6924 20.0364 27.6925 19.7825V16.8064H26.8453V15.8794H27.6924V14.3669H29.0906V15.8794H30.1147Z" fill="black"/>
<path fill-rule="evenodd" clip-rule="evenodd" d="M7.09805 13.957L8.74247 18.7484H8.76225L10.3178 13.9571H12.494V20.9246H11.0467V15.9868H11.0273L9.30388 20.9245H8.11222L6.38896 16.0355H6.36951V20.9245H4.92188V13.957H7.09805ZM13.0555 17.431C13.0752 17.1058 13.1572 16.8358 13.3018 16.6211C13.4436 16.4088 13.6322 16.2319 13.8531 16.1039C14.0871 15.9699 14.3417 15.8759 14.6066 15.8259C14.8838 15.7708 15.1658 15.743 15.4484 15.743C15.7086 15.7432 15.9684 15.7611 16.2262 15.7964C16.4753 15.8283 16.7179 15.8991 16.9451 16.0062C17.1553 16.1051 17.338 16.2542 17.4769 16.4404C17.6146 16.6259 17.6835 16.8715 17.6837 17.1771V19.8021C17.6831 20.0206 17.6962 20.239 17.7231 20.4559C17.7492 20.664 17.7951 20.8201 17.8608 20.9243H16.443C16.4166 20.846 16.3952 20.7661 16.3789 20.6851C16.3623 20.603 16.3508 20.5199 16.3445 20.4364C16.1271 20.6604 15.856 20.8249 15.557 20.9144C15.2569 21.0052 14.945 21.0512 14.6314 21.051C14.4018 21.053 14.173 21.0234 13.9514 20.9633C13.7513 20.9099 13.5638 20.817 13.4 20.69C13.2415 20.5654 13.1149 20.4049 13.0306 20.2217C12.9372 20.0098 12.8918 19.7799 12.8977 19.5484C12.8977 19.2621 12.9485 19.0263 13.0502 18.841C13.1445 18.6639 13.2795 18.5117 13.444 18.3969C13.6122 18.2831 13.7987 18.1989 13.9954 18.1481C14.2014 18.0931 14.4102 18.0492 14.6209 18.0164C14.8309 17.984 15.0376 17.958 15.2411 17.9384C15.4235 17.9224 15.6045 17.893 15.7827 17.8505C15.9184 17.8216 16.0462 17.7634 16.157 17.6798C16.2487 17.6051 16.2914 17.4961 16.2849 17.3529C16.2907 17.2298 16.2653 17.1073 16.211 16.9967C16.1648 16.912 16.0968 16.8413 16.0141 16.7918C15.9262 16.741 15.8292 16.7079 15.7287 16.6942C15.6129 16.6775 15.496 16.6694 15.379 16.6699C15.1032 16.6699 14.8866 16.7285 14.7291 16.8456C14.5717 16.9626 14.4799 17.1578 14.4538 17.431H13.0555ZM16.2853 18.4556C16.2205 18.5109 16.1451 18.5524 16.0637 18.5776C15.9703 18.6081 15.8749 18.6325 15.7783 18.6508C15.6764 18.6702 15.5697 18.6864 15.4583 18.6994C15.3468 18.7123 15.2352 18.7286 15.1235 18.748C15.0185 18.7675 14.9149 18.7936 14.8132 18.8261C14.7181 18.8553 14.6283 18.8998 14.5474 18.9578C14.4718 19.0132 14.4095 19.0849 14.3651 19.1676C14.3157 19.2675 14.292 19.3782 14.2962 19.4896C14.2927 19.5979 14.3164 19.7053 14.3651 19.802C14.4087 19.884 14.4733 19.9529 14.5522 20.0019C14.637 20.0529 14.7305 20.0876 14.828 20.1042C14.9352 20.124 15.0439 20.1338 15.1529 20.1334C15.4287 20.1334 15.642 20.0879 15.7929 19.9969C15.9309 19.9186 16.0463 19.806 16.1278 19.6699C16.1971 19.5515 16.2423 19.4205 16.2607 19.2845C16.2751 19.181 16.2833 19.0767 16.2853 18.9722V18.4556V18.4556ZM18.1955 15.8792H19.7908L20.6868 17.1966L21.5731 15.8792H23.1189L21.4449 18.2407L23.3258 20.9243H21.7306L20.6673 19.3337L19.6037 20.9243H18.0379L19.8695 18.2701L18.1955 15.8792Z" fill="white"/>
</g>
<defs>
<clipPath id="clip0_10903_151211">
<rect width="35" height="35" fill="white"/>
</clipPath>
</defs>
</svg>
