<svg width="41" height="41" viewBox="0 0 41 41" fill="none" xmlns="http://www.w3.org/2000/svg">
<g clip-path="url(#clip0_10903_151202)">
<path d="M41 41H0V0H41V41Z" fill="#FF6600"/>
<path d="M5.04648 37.6942C3.56228 37.6942 2.22217 36.7488 2.22217 34.6824C2.22217 32.616 3.56111 31.6719 5.04648 31.6719C6.53185 31.6719 7.86845 32.6172 7.86845 34.6824C7.86845 36.7477 6.53068 37.6942 5.04648 37.6942ZM5.04648 32.9417C3.92425 32.9417 3.71925 33.9526 3.71925 34.6836C3.71925 35.4146 3.92425 36.4267 5.04648 36.4267C6.16871 36.4267 6.37371 35.4134 6.37371 34.6836C6.37371 33.9538 6.16871 32.9417 5.04648 32.9417Z" fill="white"/>
<path d="M8.89819 31.8214H10.3273V32.4915C10.6003 32.1295 11.2703 31.7031 11.8994 31.7031C11.9591 31.7031 12.0329 31.7031 12.0939 31.7113V33.1217H12.0201C11.3676 33.1217 10.653 33.2236 10.4222 33.7309V37.5263H8.89819V31.8214Z" fill="white"/>
<path d="M16.0837 37.0331C15.5027 37.415 14.8737 37.6001 14.1977 37.6001C13.1329 37.6001 12.5027 36.8914 12.5027 35.9402C12.5027 34.6622 13.6765 33.9874 16.0966 33.7156V33.397C16.0966 32.9823 15.7827 32.7398 15.2017 32.7398C14.6206 32.7398 14.1485 32.9706 13.8088 33.397L12.7955 32.8195C13.3274 32.0756 14.1368 31.7031 15.2251 31.7031C16.714 31.7031 17.5492 32.3486 17.5492 33.397C17.5492 33.397 17.5469 37.5228 17.5492 37.5322H16.2173L16.0837 37.032V37.0331ZM13.9799 35.8312C13.9799 36.2155 14.2212 36.5739 14.6569 36.5739C15.129 36.5739 15.5882 36.3795 16.0474 35.973V34.6212C14.6441 34.7945 13.9799 35.1565 13.9799 35.8312Z" fill="white"/>
<path d="M18.7358 31.9753L19.9799 31.8043L20.117 32.4813C20.8175 31.9683 21.3751 31.6953 22.0756 31.6953C23.2494 31.6953 23.8562 32.3185 23.8562 33.552V37.5243H22.3532V33.8133C22.3532 33.1151 22.1728 32.8 21.6293 32.8C21.1818 32.8 20.7343 33.0026 20.2224 33.4325V37.5243H18.7358V31.9753Z" fill="white"/>
<path d="M27.5309 36.3014C28.6695 36.2932 28.7667 35.1335 28.7667 34.3791C28.7667 33.4841 28.331 32.7613 27.5215 32.7613C26.9826 32.7613 26.3794 33.1549 26.3794 34.4411C26.3794 35.144 26.4297 36.3119 27.532 36.3014M30.2111 31.8019V37.2045C30.2111 38.1557 30.1361 39.7301 27.4196 39.7442C26.2974 39.7524 25.256 39.3026 25.0498 38.3233L26.5305 38.0843C26.5926 38.3643 26.7648 38.6431 27.6047 38.6431C28.3825 38.6431 28.7574 38.2705 28.7574 37.3791V36.7149L28.7374 36.695C28.4985 37.1225 28.1365 37.5267 27.265 37.5267C25.933 37.5267 24.887 36.6036 24.887 34.6743C24.887 32.7449 25.967 31.6965 27.1794 31.6953C28.3192 31.693 28.7398 32.2131 28.8394 32.4849L28.8194 32.4825L28.9448 31.7996H30.2123L30.2111 31.8019Z" fill="white"/>
<path d="M33.8004 37.6333C32.1182 37.6333 31.1155 36.5509 31.1155 34.6743C31.1155 32.7976 32.1299 31.6953 33.7758 31.6953C35.4216 31.6953 36.401 32.7437 36.401 34.5993C36.401 34.6989 36.3893 34.7961 36.3893 34.8945H32.5903C32.5997 35.9769 33.0495 36.5228 33.9339 36.5228C34.5009 36.5228 34.8769 36.2943 35.2295 35.793L36.3283 36.4021C35.8445 37.2116 34.973 37.6356 33.8004 37.6356M34.9273 33.9222C34.9273 33.1596 34.4892 32.7098 33.777 32.7098C33.0647 32.7098 32.6747 33.1491 32.6149 33.9222H34.9273Z" fill="white"/>
<path d="M38.9722 29.6562L38.4193 31.0866L37.8559 29.6562H37.3744V31.5434H37.6872V29.969H37.6954L38.3139 31.5434H38.513L39.128 29.969H39.1374V31.5434H39.4478V29.6562H38.9722ZM35.5001 29.6562V29.9069H36.0894V31.5422H36.4021V29.9069H36.9937V29.6562H35.5013H35.5001Z" fill="white"/>
</g>
<defs>
<clipPath id="clip0_10903_151202">
<rect width="41" height="41" fill="white"/>
</clipPath>
</defs>
</svg>
